<svg xmlns="http://www.w3.org/2000/svg" xml:space="preserve" width="422.10861" height="422.12784" viewBox="0 0 422.10861 422.12786"><defs><clipPath id="a" clipPathUnits="userSpaceOnUse"><path d="M0 858.9h612.28V0H0Z"/></clipPath></defs><g clip-path="url(#a)" style="stroke-width:.485688" transform="matrix(2.74524 0 0 -2.74524 -630.793 1389.348)"><g style="stroke-width:.485688"><path d="M0 0c0-41.422-33.891-75-75.698-75-41.808 0-75.7 33.578-75.7 75s33.892 75 75.7 75S0 41.421 0 0" style="fill:#ffd500;fill-opacity:1;fill-rule:nonzero;stroke:none;stroke-width:.485688" transform="translate(382.356 429.451)"/></g><g style="stroke-width:.485688"><path d="M0 0q1.236-1.04 2.427-1.177 1.188-.13 1.853.654c.436.523.537 1.155.291 1.904-.248.745-.767 1.453-1.566 2.122Q1.879 4.455.644 4.687c-.827.156-1.457-.033-1.905-.567q-.653-.769-.25-1.98Q-1.101.932 0 0m.291 2.812c.167.196.418.244.763.138.342-.108.668-.297.995-.567.327-.279.563-.562.712-.861q.218-.45-.03-.744C2.569.582 2.325.523 2.002.611c-.323.079-.654.265-.992.548q-.49.414-.73.887c-.156.316-.149.574.011.766M-32.993 7.47l-.294 1.824-12.437-1.98.291-1.821zm-14.235-4.338-2.855 5.973 1.558.748-.857 1.795-1.563-.748-2.368 4.956-1.719-.821 6.086-12.724zm12.288 7.554-.288 1.802-7.578-1.203-.193 1.217 7.339 1.17-.287 1.787-7.339-1.169-.196 1.235 7.397 1.181-.291 1.802-9.315-1.482 1.25-7.852zm-22.777-8.193c1.017-.6 2.02-.661 3.001-.189.996.48 1.577 1.3 1.737 2.47.16 1.174-.109 2.475-.788 3.898q-1.032 2.157-2.548 3.067-1.514.911-3.011.193-1.471-.705-1.734-2.445c-.174-1.163.088-2.475.785-3.928q1.036-2.168 2.558-3.066m-.781 7.742q.735.347 1.602-.41.861-.76 1.428-1.948.583-1.211.636-2.362c.029-.766-.196-1.264-.69-1.5-.473-.229-1.003-.087-1.599.414-.596.502-1.09 1.155-1.468 1.955a5.65 5.65 0 0 0-.589 2.34c-.021.777.211 1.278.68 1.511m-.57-13.388-4.455 4.959 1.319 1.185-1.351 1.5-1.319-1.188-3.626 4.029-1.424-1.283 9.431-10.488zM-4.255 9.501l-7.066 3.103.49 1.115 6.935-3.044.731 1.671-8.731 3.837-1.955-4.462 8.859-3.895zm6.322-14.58L.323-7.15l1.523-1.279 2.891 3.434-7.215 6.078-1.148-1.366Zm5.301 7.652L1.286 7.699.218 6.439l6.089-5.127Zm-26.479 5.18-6.439.814.59 4.614-1.948.244-.584-4.611-4.117.52-.232-1.827 12.498-1.577zm-3.411 4.302q-.564-1.973-.61-2.092l1.86-.24q.018.065.821 2.758c.537 1.794.883 3.345 1.05 4.646l-9.795 1.239-.237-1.824 7.713-.973c-.16-1.029-.424-2.199-.802-3.514m18.46-5.562-11.531 5.064-.731-1.66 11.532-5.065zm-9.084-5.01Q-10.857.481-9.345.705c1.018.149 1.693.596 2.013 1.337.335.756.211 1.559-.363 2.402q-.864 1.275-3.148 2.277c-1.51.662-2.774.924-3.793.778-1.015-.138-1.688-.588-2.019-1.34q-.496-1.129.375-2.406c.577-.85 1.628-1.609 3.134-2.27m-1.474 3.782c.144.345.494.512 1.039.508q.818-.01 2.07-.566 1.253-.54 1.803-1.156.557-.61.326-1.126c-.137-.309-.478-.469-1.031-.473q-.818-.007-2.065.542c-.841.367-1.437.759-1.808 1.177-.363.418-.477.785-.334 1.094m-66.255-16.626 1.94-1.199-2.321-3.749 5.115-3.161 1.552 2.543q.693 1.119 1.282 2.351.595 1.23.868 1.889l-1.54.952a43 43 0 0 0-.788-1.744 18 18 0 0 0-.992-1.867l-.945-1.523-1.988 1.228 2.315 3.75-5.054 3.132-3.331-5.385 1.569-.97zm87.103 3.31L4.69-9.072l6.969-10.496 1.537 1.021-2.645 3.982 3.845 2.55-1.073 1.624-3.847-2.55-.702 1.046 3.851 2.555-1.071 1.612-3.844-2.554zM5.151-4.505l2.137 2.533 1.268-1.065 1.243 1.471L8.524-.501l2.413 2.859-1.469 1.239L3.685-3.27Zm9.2-8.872q-1.82-.867-1.94-.915l1.043-1.577q.47.19 2.438 1.068c1.31.581 2.767 1.413 4.375 2.474L14.7-3.945l-1.537-1.018 4.41-6.645a32 32 0 0 0-3.222-1.769m-82.633 1.381-11.997 7.418-1.003-1.62 12.001-7.419zM7.403 5.501 4.131 8.255 3.088 7.02l3.274-2.758Zm-78.345-4.483 1.519-1.693-3.128-2.813 4.021-4.472 1.861 1.675a31 31 0 0 1 1.984 1.962c.661.727 1.14 1.279 1.424 1.664l-1.199 1.333a40 40 0 0 0-1.406-1.598q-.98-1.057-1.468-1.505l-.999-.897-1.577 1.751 3.128 2.816-3.978 4.422-4.542-4.088 1.228-1.37zm57.739-96.146.813-2.252 2.256.813-.816 2.257zM12.909-69.94c-1.375 1.091-2.744 1.625-4.116 1.611-1.374-.014-2.507-.596-3.412-1.738-.909-1.139-1.21-2.375-.912-3.713.298-1.334 1.137-2.547 2.503-3.633 1.392-1.103 2.78-1.656 4.153-1.648q2.051.012 3.415 1.724c.908 1.141 1.205 2.379.908 3.725-.297 1.345-1.147 2.569-2.539 3.672m.203-6.266c-.549-.691-1.268-.996-2.147-.908-.879.082-1.802.504-2.754 1.261q-1.404 1.116-1.817 2.368c-.268.838-.13 1.603.411 2.285q.818 1.031 2.13.912c.871-.078 1.78-.49 2.712-1.231.954-.757 1.575-1.556 1.854-2.394q.424-1.264-.389-2.293m-10.386-9.73a3.5 3.5 0 0 0-.038 1.035q.064.548.168.902l.596 2.006q.237.81.308 1.92c.052.742-.198 1.463-.763 2.164Q2.131-76.834.8-76.598c-.88.152-1.803-.152-2.758-.92q-1.434-1.156-1.41-2.571c.017-.943.353-1.835.999-2.672l1.417 1.141c-.348.469-.553.934-.621 1.407-.065.464.156.912.679 1.322.428.345.838.488 1.229.418.393-.067.747-.305 1.074-.712.255-.314.39-.673.414-1.068q.036-.602-.159-1.203l-.602-2.013q-.546-1.804-.219-2.987a6.4 6.4 0 0 1 1.155-2.23l5.821 4.669-1.057 1.315zm-44.987-13.672 2.369-.369.374 2.363-2.366.375zm-28.02 31.137c-.301-.203-.581-.327-.85-.373q-.398-.066-.664.019a2.4 2.4 0 0 0-.76.42 4.3 4.3 0 0 0-.767.821l-1.297-.938 1.294-1.784-6.06-4.386 1.105-1.529 8.93 6.468zm50.11-23.106c-.872.402-1.629.577-2.267.5a3 3 0 0 1-.887-.222 4 4 0 0 1-.821-.421l-.058 2.086 4.322.745-.301 1.74-5.943-1.028.152-6.109 1.697.295c.145.324.356.582.631.789.262.203.615.342 1.04.416.544.096 1.007-.043 1.38-.412.375-.364.608-.834.709-1.396q.155-.91-.236-1.58c-.258-.451-.654-.72-1.174-.807q-.819-.143-1.398.266c-.393.267-.654.642-.8 1.131l-1.841-.317c.308-.938.839-1.682 1.586-2.246q1.115-.837 2.806-.549c.916.156 1.704.637 2.373 1.436.665.799.897 1.812.686 3.037-.24 1.359-.785 2.24-1.656 2.646m-42.69 14.176q-.118 1.214-1.229 2.256c-.784.73-1.685 1.076-2.695 1.031q-1.514-.07-2.62-1.246c-.701-.75-1.057-1.615-1.079-2.601q-.032-1.477 1.043-2.582c.316-.325.69-.557 1.123-.709a4.2 4.2 0 0 1 1.158-.251c-.152-.146-.338-.32-.57-.515a2.8 2.8 0 0 0-.741-.484 3.2 3.2 0 0 0-1.083-.313c-.392-.043-.785.113-1.17.479q-.599.556-.588 1.28.01.724.414 1.274l-1.377 1.283a3.88 3.88 0 0 1-.828-2.609q.057-1.455 1.14-2.467 1.02-.957 2.184-1.049 1.161-.092 2.409.555 1.129.594 2.372 1.901 1.241 1.303 1.704 2.355c.367.802.513 1.609.433 2.412m-2.446-1.784q-.627-.676-1.384-.765c-.501-.056-.955.096-1.358.475-.393.369-.586.812-.567 1.328.014.509.232.992.653 1.439.411.441.88.691 1.389.745.512.058.966-.102 1.366-.472.407-.377.588-.821.556-1.334q-.05-.767-.655-1.416m18.41-6.293q-1.745.597-2.928-.183c-.789-.522-1.367-1.274-1.726-2.266l1.726-.595c.203.544.487.973.85 1.277.363.305.854.354 1.482.135q.783-.265 1.01-.817c.153-.366.138-.796-.029-1.289a1.9 1.9 0 0 0-.683-.923 3.3 3.3 0 0 0-1.097-.505l-2.028-.56q-1.819-.508-2.641-1.414a6.4 6.4 0 0 1-1.268-2.168l7.052-2.431.548 1.601-4.882 1.684c.232.224.519.417.85.582.33.158.618.277.853.345l2.014.565q.811.228 1.79.764.982.533 1.417 1.798c.298.872.28 1.725-.065 2.555q-.513 1.249-2.245 1.845m-10.689.632c-.24.167-.516.303-.818.411a4.5 4.5 0 0 1-.897.214l1.315 1.615 3.765-2.258.908 1.512-5.167 3.107-3.873-4.728 1.468-.883c.327.147.654.207.995.189.338-.027.691-.146 1.061-.367q.71-.43.778-1.213a2.53 2.53 0 0 0-.378-1.523c-.32-.526-.719-.871-1.21-1.047-.483-.168-.962-.115-1.417.156q-.713.428-.886 1.118-.18.686.134 1.38l-1.606.961q-.555-1.372-.261-2.738c.196-.908.792-1.658 1.773-2.25.788-.475 1.7-.625 2.724-.457 1.032.166 1.864.785 2.508 1.855q1.058 1.769.472 3.083c-.4.878-.858 1.497-1.388 1.863m89.26 40.703v18.842h-61.433v-7.539h53.767v-4.269h-53.767v-18.843h61.433v7.535h-54.146v4.274zM-31.83-2.816c-13.715 0-25.752-7.328-32.398-18.278h4.506c6.179 8.767 16.378 14.511 27.892 14.511 11.517 0 21.712-5.744 27.892-14.511H.573C-6.075-10.144-18.111-2.816-31.83-2.816m.185 39.01c-42.392 0-76.878-34.493-76.878-76.885s34.486-76.882 76.878-76.882c42.399 0 76.882 34.49 76.882 76.882S10.754 36.194-31.645 36.194m0-149.996c-40.31 0-73.111 32.797-73.111 73.111 0 40.317 32.801 73.114 73.111 73.114 40.321 0 73.115-32.797 73.115-73.114 0-40.314-32.794-73.111-73.115-73.111m0 143.395c-38.752 0-70.284-31.529-70.284-70.284 0-38.757 31.532-70.285 70.284-70.285 38.761 0 70.289 31.528 70.289 70.285 0 38.755-31.528 70.284-70.289 70.284m0-139.065c-37.92 0-68.776 30.856-68.776 68.781s30.856 68.779 68.776 68.779c37.931 0 68.784-30.853 68.784-68.779s-30.853-68.781-68.784-68.781m-1.882 61.055h-54.146v4.274h54.146v18.842h-61.43v-7.539h53.767v-4.269h-53.767v-18.843h61.43zm29.589-11.869c-5.829-8.269-15.231-13.842-25.946-14.453l-1.761 10.619-1.759-10.63c-10.863.5-20.418 6.097-26.318 14.464h-4.506c6.646-10.951 18.683-18.279 32.398-18.279 13.719 0 25.755 7.328 32.403 18.279z" style="fill:#008439;fill-opacity:1;fill-rule:nonzero;stroke:none;stroke-width:.485688" transform="translate(338.3 469.899)"/></g></g></svg>